<svg xmlns="http://www.w3.org/2000/svg" width="22" height="18" viewBox="1 3 22 18"><g data-name="Iconly/Bulk/Scan"><g data-name="Scan"><path d="M7.24 10.523a.28.28 0 0 1-.27-.269V9.008c-.012-1.24 1.004-2.252 2.269-2.265h5.523a2.27 2.27 0 0 1 1.61.662c.425.429.662 1.005.66 1.603v1.246a.28.28 0 0 1-.273.27H7.24Zm12.415-1.76V6.906c0-1.33-1.105-2.413-2.461-2.413h-1.593a.754.754 0 0 1-.761-.745c0-.413.34-.748.761-.748h1.593c2.197 0 3.983 1.751 3.983 3.906v1.857c0 .411-.34.747-.761.747a.755.755 0 0 1-.761-.747ZM2.824 8.762v-1.86c0-2.149 1.783-3.9 3.974-3.901L8.428 3c.42 0 .76.335.76.747s-.34.746-.76.746l-1.629.001c-1.353.003-2.452 1.082-2.452 2.408v1.86a.755.755 0 0 1-.762.747.755.755 0 0 1-.761-.747Z" fill-rule="evenodd" data-name="Combined Shape"/><path d="M22.239 12.041H1.762a.755.755 0 0 0-.762.747c0 .412.342.746.762.746h1.061v3.563c0 2.15 1.784 3.9 3.975 3.902L8.427 21a.755.755 0 0 0 .762-.747.754.754 0 0 0-.761-.746L6.8 19.506c-1.353-.002-2.454-1.082-2.454-2.409v-3.563h2.623v.991c-.01 1.24 1.005 2.254 2.269 2.266h5.524c1.265-.012 2.28-1.025 2.27-2.266v-.991h2.623v3.56c0 1.33-1.104 2.413-2.461 2.413h-1.593a.754.754 0 0 0-.762.746c0 .413.341.747.762.747h1.593c2.196 0 3.983-1.751 3.983-3.907v-3.56h1.062c.42 0 .761-.333.761-.745a.754.754 0 0 0-.761-.747" fill-rule="evenodd" data-name="Fill 7"/></g></g></svg>